<svg width="360" height="800" viewBox="0 0 360 800" fill="none" xmlns="http://www.w3.org/2000/svg">
<g clip-path="url(#clip0_1062_27060)">
<rect width="360" height="800" fill="url(#paint0_linear_1062_27060)"/>
<path d="M336.935 681.707L252.456 726.534L168.025 681.616" stroke="#EC1F24" stroke-opacity="0.15" stroke-width="3" stroke-miterlimit="1"/>
<path d="M336.934 681.708L336.982 591.963L252.551 547.045" stroke="#EC1F24" stroke-opacity="0.15" stroke-width="3" stroke-miterlimit="1"/>
<path d="M168.024 681.617L168.072 591.872L252.551 547.045" stroke="#EC1F24" stroke-opacity="0.15" stroke-width="3" stroke-miterlimit="1"/>
<path d="M252.455 726.535L168.024 681.617L168.072 591.872L252.503 636.79L252.455 726.535Z" stroke="#EC1F24" stroke-opacity="0.15" stroke-width="3" stroke-miterlimit="1"/>
<path d="M252.455 726.535L336.934 681.708L336.982 591.963L252.503 636.791L252.455 726.535Z" stroke="#EC1F24" stroke-opacity="0.15" stroke-width="3" stroke-miterlimit="1"/>
<path d="M336.982 591.963L252.551 547.045L168.072 591.872L252.503 636.79L336.982 591.963Z" stroke="#EC1F24" stroke-opacity="0.15" stroke-width="3" stroke-miterlimit="1"/>
<path d="M411.935 294.707L327.456 339.534L243.025 294.616" stroke="#EC1F24" stroke-opacity="0.05" stroke-width="3" stroke-miterlimit="1"/>
<path d="M411.934 294.708L411.982 204.963L327.551 160.045" stroke="#EC1F24" stroke-opacity="0.05" stroke-width="3" stroke-miterlimit="1"/>
<path d="M243.024 294.617L243.072 204.872L327.551 160.045" stroke="#EC1F24" stroke-opacity="0.05" stroke-width="3" stroke-miterlimit="1"/>
<path d="M327.455 339.535L243.024 294.617L243.072 204.872L327.503 249.79L327.455 339.535Z" stroke="#EC1F24" stroke-opacity="0.05" stroke-width="3" stroke-miterlimit="1"/>
<path d="M327.455 339.535L411.934 294.708L411.982 204.963L327.503 249.791L327.455 339.535Z" stroke="#EC1F24" stroke-opacity="0.05" stroke-width="3" stroke-miterlimit="1"/>
<path d="M411.982 204.963L327.551 160.045L243.072 204.872L327.503 249.79L411.982 204.963Z" stroke="#EC1F24" stroke-opacity="0.05" stroke-width="3" stroke-miterlimit="1"/>
<path d="M421.935 816.464L421.983 726.719L337.552 681.802" stroke="#EC1F24" stroke-opacity="0.05" stroke-width="3" stroke-miterlimit="1"/>
<path d="M253.025 816.373L253.073 726.629" stroke="#EC1F24" stroke-opacity="0.05" stroke-width="3" stroke-miterlimit="1"/>
<path d="M337.456 861.291L253.025 816.373L253.073 726.629L337.504 771.546L337.456 861.291Z" stroke="#EC1F24" stroke-opacity="0.05" stroke-width="3" stroke-miterlimit="1"/>
<path d="M337.456 861.292L421.935 816.465L421.983 726.72L337.504 771.547L337.456 861.292Z" stroke="#EC1F24" stroke-opacity="0.05" stroke-width="3" stroke-miterlimit="1"/>
<path d="M337.552 681.801L421.983 726.719L337.504 771.546L253.073 726.629" stroke="#EC1F24" stroke-opacity="0.05" stroke-width="3" stroke-miterlimit="1"/>
<path d="M191.935 134.707L107.456 179.534L23.0254 134.616" stroke="#EC1F24" stroke-opacity="0.05" stroke-width="3" stroke-miterlimit="1"/>
<path d="M191.935 134.708L191.983 44.963L107.552 0.0454102" stroke="#EC1F24" stroke-opacity="0.05" stroke-width="3" stroke-miterlimit="1"/>
<path d="M23.0247 134.617L23.0727 44.8724L107.552 0.0451477" stroke="#EC1F24" stroke-opacity="0.05" stroke-width="3" stroke-miterlimit="1"/>
<path d="M107.455 179.535L23.0243 134.617L23.0723 44.8723L107.503 89.7899L107.455 179.535Z" stroke="#EC1F24" stroke-opacity="0.05" stroke-width="3" stroke-miterlimit="1"/>
<path d="M107.455 179.535L191.934 134.708L191.982 44.9634L107.503 89.7906L107.455 179.535Z" stroke="#EC1F24" stroke-opacity="0.05" stroke-width="3" stroke-miterlimit="1"/>
<path d="M191.983 44.9627L107.552 0.0451477L23.0727 44.8724L107.504 89.79L191.983 44.9627Z" stroke="#EC1F24" stroke-opacity="0.05" stroke-width="3" stroke-miterlimit="1"/>
<path d="M85.9353 626.707L1.45638 671.534L-82.9746 626.616" stroke="#EC1F24" stroke-opacity="0.05" stroke-width="3" stroke-miterlimit="1"/>
<path d="M85.9348 626.708L85.9827 536.963L1.55176 492.045" stroke="#EC1F24" stroke-opacity="0.05" stroke-width="3" stroke-miterlimit="1"/>
<path d="M-82.9753 626.617L-82.9273 536.872L1.55165 492.045" stroke="#EC1F24" stroke-opacity="0.05" stroke-width="3" stroke-miterlimit="1"/>
<path d="M1.45528 671.535L-82.9757 626.617L-82.9277 536.872L1.50325 581.79L1.45528 671.535Z" stroke="#EC1F24" stroke-opacity="0.05" stroke-width="3" stroke-miterlimit="1"/>
<path d="M1.45538 671.535L85.9343 626.708L85.9823 536.963L1.50336 581.791L1.45538 671.535Z" stroke="#EC1F24" stroke-opacity="0.05" stroke-width="3" stroke-miterlimit="1"/>
<path d="M85.9826 536.963L1.55166 492.045L-82.9273 536.872L1.50368 581.79L85.9826 536.963Z" stroke="#EC1F24" stroke-opacity="0.05" stroke-width="3" stroke-miterlimit="1"/>
<path d="M107.935 269.707L23.4564 314.534L-60.9746 269.616" stroke="#EC1F24" stroke-opacity="0.15" stroke-width="3" stroke-miterlimit="1"/>
<path d="M107.935 269.708L107.983 179.963" stroke="#EC1F24" stroke-opacity="0.15" stroke-width="3" stroke-miterlimit="1"/>
<path d="M-60.9753 269.617L-60.9273 179.872L23.5517 135.045" stroke="#EC1F24" stroke-opacity="0.15" stroke-width="3" stroke-miterlimit="1"/>
<path d="M23.4553 314.535L-60.9757 269.617L-60.9277 179.872L23.5033 224.79L23.4553 314.535Z" stroke="#EC1F24" stroke-opacity="0.15" stroke-width="3" stroke-miterlimit="1"/>
<path d="M23.4554 314.535L107.934 269.708L107.982 179.963L23.5034 224.791L23.4554 314.535Z" stroke="#EC1F24" stroke-opacity="0.15" stroke-width="3" stroke-miterlimit="1"/>
<path d="M23.5517 135.045L-60.9273 179.872L23.5037 224.79L107.983 179.963" stroke="#EC1F24" stroke-opacity="0.15" stroke-width="3" stroke-miterlimit="1"/>
</g>
<defs>
<linearGradient id="paint0_linear_1062_27060" x1="180" y1="0" x2="180" y2="1356" gradientUnits="userSpaceOnUse">
<stop stop-color="white"/>
<stop offset="0.4" stop-color="#FAEFEF"/>
<stop offset="0.79" stop-color="#F2B2B4"/>
</linearGradient>
<clipPath id="clip0_1062_27060">
<rect width="360" height="800" fill="white"/>
</clipPath>
</defs>
</svg>
