<svg width="156" height="156" viewBox="0 0 156 156" fill="none" xmlns="http://www.w3.org/2000/svg">
<path d="M44.3145 39.425V70.4588C45.7096 71.4043 56.7155 78.8295 56.7155 78.8295L57.0101 104.794" stroke="#EC1F24" stroke-width="2.3252" stroke-miterlimit="10"/>
<path d="M44.3145 87.8518V121.707H74.9451L81.9517 111.491L99.1582 111.786" stroke="#EC1F24" stroke-width="2.3252" stroke-miterlimit="10"/>
<path d="M44.2535 38.6344C46.6506 38.6344 48.5938 36.6911 48.5938 34.294C48.5938 31.8969 46.6506 29.9536 44.2535 29.9536C41.8563 29.9536 39.9131 31.8969 39.9131 34.294C39.9131 36.6911 41.8563 38.6344 44.2535 38.6344Z" stroke="#EC1F24" stroke-width="2.3252" stroke-miterlimit="10"/>
<path d="M58.3135 63.4211V34.4646H70.8541V100.702H116.087V121.706H92.1064" stroke="#EC1F24" stroke-width="2.3252" stroke-miterlimit="10"/>
<path d="M56.9947 114.453C59.3918 114.453 61.3351 112.51 61.3351 110.113C61.3351 107.716 59.3918 105.772 56.9947 105.772C54.5976 105.772 52.6543 107.716 52.6543 110.113C52.6543 112.51 54.5976 114.453 56.9947 114.453Z" stroke="#EC1F24" stroke-width="2.3252" stroke-miterlimit="10"/>
<path d="M104.229 115.969C106.626 115.969 108.569 114.026 108.569 111.629C108.569 109.232 106.626 107.289 104.229 107.289C101.831 107.289 99.8882 109.232 99.8882 111.629C99.8882 114.026 101.831 115.969 104.229 115.969Z" stroke="#EC1F24" stroke-width="2.3252" stroke-miterlimit="10"/>
<path d="M86.9283 126.046C89.3254 126.046 91.2686 124.103 91.2686 121.706C91.2686 119.309 89.3254 117.365 86.9283 117.365C84.5311 117.365 82.5879 119.309 82.5879 121.706C82.5879 124.103 84.5311 126.046 86.9283 126.046Z" stroke="#EC1F24" stroke-width="2.3252" stroke-miterlimit="10"/>
</svg>
